<mxfile host="app.diagrams.net" modified="2024-03-23T01:19:55.739Z" agent="Mozilla/5.0 (Windows NT 10.0; Win64; x64) AppleWebKit/537.36 (KHTML, like Gecko) Chrome/122.0.0.0 Safari/537.36" version="24.0.8" etag="7wkWoWdI1a5Ki9SiQefg" type="github">
  <diagram name="Page-1" id="8FzGjgKNR0GJy1SoTJMO">
    <mxGraphModel>
      <root>
        <mxCell id="0" />
        <mxCell id="1" parent="0" />
      </root>
    </mxGraphModel>
  </diagram>
</mxfile>
